<svg width="23" height="20" viewBox="0 0 23 20" fill="none" xmlns="http://www.w3.org/2000/svg">
<path d="M11.7357 0C14.3839 0 14.7144 0.00999994 15.7534 0.0599999C16.7915 0.11 17.4982 0.277 18.12 0.525C18.7633 0.779 19.3053 1.123 19.8472 1.678C20.3428 2.1779 20.7264 2.78259 20.9711 3.45C21.2118 4.087 21.3756 4.813 21.4243 5.878C21.4701 6.944 21.4828 7.283 21.4828 10C21.4828 12.717 21.473 13.056 21.4243 14.122C21.3756 15.187 21.2118 15.912 20.9711 16.55C20.7271 17.2178 20.3435 17.8226 19.8472 18.322C19.3598 18.8303 18.7705 19.2238 18.12 19.475C17.4991 19.722 16.7915 19.89 15.7534 19.94C14.7144 19.987 14.3839 20 11.7357 20C9.08736 20 8.75693 19.99 7.71789 19.94C6.67982 19.89 5.97315 19.722 5.35128 19.475C4.70049 19.2245 4.11099 18.8309 3.62409 18.322C3.12836 17.8222 2.74484 17.2175 2.50025 16.55C2.25852 15.913 2.09574 15.187 2.04701 14.122C2.0012 13.056 1.98853 12.717 1.98853 10C1.98853 7.283 1.99827 6.944 2.04701 5.878C2.09574 4.812 2.25852 4.088 2.50025 3.45C2.74416 2.78218 3.12777 2.17732 3.62409 1.678C4.11113 1.16923 4.70059 0.775729 5.35128 0.525C5.97315 0.277 6.67884 0.11 7.71789 0.0599999C8.75693 0.0129999 9.08736 0 11.7357 0ZM11.7357 5C10.4431 5 9.20349 5.52678 8.28952 6.46447C7.37555 7.40215 6.86209 8.67392 6.86209 10C6.86209 11.3261 7.37555 12.5979 8.28952 13.5355C9.20349 14.4732 10.4431 15 11.7357 15C13.0282 15 14.2678 14.4732 15.1818 13.5355C16.0958 12.5979 16.6092 11.3261 16.6092 10C16.6092 8.67392 16.0958 7.40215 15.1818 6.46447C14.2678 5.52678 13.0282 5 11.7357 5ZM18.0713 4.75C18.0713 4.41848 17.9429 4.10054 17.7144 3.86612C17.4859 3.6317 17.176 3.5 16.8529 3.5C16.5298 3.5 16.2199 3.6317 15.9914 3.86612C15.7629 4.10054 15.6345 4.41848 15.6345 4.75C15.6345 5.08152 15.7629 5.39946 15.9914 5.63388C16.2199 5.8683 16.5298 6 16.8529 6C17.176 6 17.4859 5.8683 17.7144 5.63388C17.9429 5.39946 18.0713 5.08152 18.0713 4.75ZM11.7357 7C12.5112 7 13.2549 7.31607 13.8033 7.87868C14.3517 8.44129 14.6598 9.20435 14.6598 10C14.6598 10.7956 14.3517 11.5587 13.8033 12.1213C13.2549 12.6839 12.5112 13 11.7357 13C10.9601 13 10.2164 12.6839 9.66797 12.1213C9.11959 11.5587 8.81151 10.7956 8.81151 10C8.81151 9.20435 9.11959 8.44129 9.66797 7.87868C10.2164 7.31607 10.9601 7 11.7357 7Z" fill="#F9FBFD"/>
</svg>
