<svg xmlns="http://www.w3.org/2000/svg" xmlns:xlink="http://www.w3.org/1999/xlink"><symbol id="all-inclusive" viewBox="0 0 38 32">
<path d="M28.7534 7.21506L26.4398 5L16.0732 14.9325L18.3868 17.1476L28.7534 7.21506ZM35.6945 5L18.3787 21.5699L11.5602 15.0421L9.24656 17.2572L18.3787 26L38 7.21506L35.6945 5ZM0 17.2572L9.1321 26L11.4458 23.7849L2.31368 15.0421L0 17.2572Z" fill="#011C40"/>
</symbol><symbol id="boat" viewBox="0 0 42 32">
<path d="M39.555 20.056L1.57287 16.0684C1.28101 16.0378 1.0843 16.3326 1.23548 16.5673C3.66312 20.3403 9.41009 23 16.1 23H38.7584C38.9124 23 39.0475 22.9068 39.093 22.7698L39.8504 20.476C39.9148 20.281 39.7727 20.0788 39.555 20.056Z" fill="#011C40"/>
<path d="M41.8896 13.5177C41.7782 13.3559 41.597 13.2483 41.3933 13.2229L30.8932 11.9184C30.5145 11.8721 30.1582 12.1219 30.1065 12.4787C30.0547 12.8355 30.3248 13.1642 30.7078 13.2117L31.8964 13.3591C32.07 13.3807 32.2002 13.519 32.2002 13.682V14.6903C32.2002 14.884 32.0195 15.0353 31.8131 15.0145L29.0131 14.7347C28.8353 14.7177 28.7002 14.5774 28.7002 14.4111V11.5565C28.7002 11.4919 28.7205 11.4293 28.759 11.3758L29.9826 9.66575C30.1226 9.47009 30.1387 9.21962 30.0253 9.01028C29.9112 8.80025 29.6852 8.66329 29.4332 8.65221L14.7331 8.00003C14.4972 7.99804 14.2683 8.09266 14.1304 8.27266C14.1304 8.27266 11.3332 11.9354 10.72 12.7415C10.6465 12.838 10.5233 12.8896 10.3973 12.8765L0.774214 11.9165C0.575451 11.897 0.379396 11.9564 0.231739 12.0796C0.0847386 12.2035 0 12.3796 0 12.5648C0 13.1929 0.0875277 13.8086 0.252739 14.406C0.289161 14.5378 0.412372 14.6336 0.55724 14.6493L40.1052 18.8012C40.2725 18.8188 40.4293 18.7229 40.479 18.5729L41.9694 14.0609C42.0295 13.8777 42.0001 13.6788 41.8896 13.5177ZM20.2007 9.90513L19.6547 13.4675C19.6281 13.6403 19.4635 13.7635 19.2767 13.746C17.911 13.6175 12.7799 13.1146 12.7799 13.1146C12.5139 13.0879 12.3768 12.8042 12.5321 12.6007L14.9366 9.46428C15.0059 9.37424 15.1193 9.32273 15.2383 9.328L19.871 9.53345C20.0768 9.54254 20.23 9.71466 20.2007 9.90513ZM27.7894 10.3806L27.3589 10.9806C27.3204 11.0341 27.3001 11.0974 27.3001 11.1619V14.2019C27.3001 14.3955 27.1195 14.5469 26.913 14.526L21.3577 13.9717C21.161 13.9521 21.0203 13.7838 21.0483 13.6012L21.6146 9.9078C21.6398 9.74149 21.7973 9.62019 21.9779 9.62799L27.5149 9.87386C27.7866 9.88556 27.9406 10.1693 27.7894 10.3806ZM36.4001 15.1097C36.4001 15.3034 36.2195 15.4547 36.013 15.4338C36.013 15.4338 34.5598 15.2812 33.9088 15.2095C33.7324 15.1906 33.6001 15.051 33.6001 14.886V13.9429C33.6001 13.746 33.7863 13.5933 33.9963 13.6194L36.0963 13.8802C36.2699 13.9024 36.4001 14.0407 36.4001 14.2038V15.1097ZM40.2662 14.7823L40.0065 15.5675C39.9576 15.7162 39.8014 15.8121 39.6348 15.7958L38.1123 15.6439C37.9352 15.6263 37.8001 15.486 37.8001 15.3197V14.4653C37.8001 14.2684 37.9863 14.1157 38.1963 14.1418L39.9778 14.3629C40.192 14.3897 40.3299 14.5893 40.2662 14.7823Z" fill="#011C40"/>
</symbol><symbol id="call" viewBox="0 0 18 18">
<path d="M18 13.42V16.956C18.0001 17.2092 17.9042 17.453 17.7316 17.6382C17.559 17.8234 17.3226 17.9363 17.07 17.954C16.633 17.984 16.276 18 16 18C7.163 18 0 10.837 0 2C0 1.724 0.015 1.367 0.046 0.93C0.0637224 0.677444 0.176581 0.441011 0.361804 0.268409C0.547026 0.0958068 0.790823 -0.000114433 1.044 2.56579e-07H4.58C4.70404 -0.000125334 4.8237 0.045859 4.91573 0.12902C5.00776 0.212182 5.0656 0.326583 5.078 0.45C5.101 0.68 5.122 0.863 5.142 1.002C5.34073 2.38892 5.748 3.73783 6.35 5.003C6.445 5.203 6.383 5.442 6.203 5.57L4.045 7.112C5.36445 10.1865 7.81455 12.6365 10.889 13.956L12.429 11.802C12.4919 11.714 12.5838 11.6509 12.6885 11.6237C12.7932 11.5964 12.9042 11.6068 13.002 11.653C14.267 12.2539 15.6156 12.6601 17.002 12.858C17.141 12.878 17.324 12.9 17.552 12.922C17.6752 12.9346 17.7894 12.9926 17.8724 13.0846C17.9553 13.1766 18.0012 13.2961 18.001 13.42H18Z" fill="#011C40"/>
</symbol><symbol id="fb" viewBox="0 0 23 20">
<path d="M13.3103 11.5H15.9212L16.9655 7.5H13.3103V5.5C13.3103 4.47 13.3103 3.5 15.399 3.5H16.9655V0.14C16.6251 0.0970001 15.3395 0 13.9819 0C11.1465 0 9.13301 1.657 9.13301 4.7V7.5H6V11.5H9.13301V20H13.3103V11.5Z" fill="#F9FBFD"/>
</symbol><symbol id="icon-close" viewBox="0 0 20 20"><path d="M.293 18.291a1 1 0 101.414 1.414L10 11.413l8.292 8.292a1 1 0 101.414-1.414l-8.292-8.292 8.292-8.292A1 1 0 1018.291.293L9.999 8.585 1.707.293A1 1 0 10.293 1.707L8.585 10 .293 18.291z"/></symbol><symbol id="instagram" viewBox="0 0 23 20">
<path d="M11.7357 0C14.3839 0 14.7144 0.00999994 15.7534 0.0599999C16.7915 0.11 17.4982 0.277 18.12 0.525C18.7633 0.779 19.3053 1.123 19.8472 1.678C20.3428 2.1779 20.7264 2.78259 20.9711 3.45C21.2118 4.087 21.3756 4.813 21.4243 5.878C21.4701 6.944 21.4828 7.283 21.4828 10C21.4828 12.717 21.473 13.056 21.4243 14.122C21.3756 15.187 21.2118 15.912 20.9711 16.55C20.7271 17.2178 20.3435 17.8226 19.8472 18.322C19.3598 18.8303 18.7705 19.2238 18.12 19.475C17.4991 19.722 16.7915 19.89 15.7534 19.94C14.7144 19.987 14.3839 20 11.7357 20C9.08736 20 8.75693 19.99 7.71789 19.94C6.67982 19.89 5.97315 19.722 5.35128 19.475C4.70049 19.2245 4.11099 18.8309 3.62409 18.322C3.12836 17.8222 2.74484 17.2175 2.50025 16.55C2.25852 15.913 2.09574 15.187 2.04701 14.122C2.0012 13.056 1.98853 12.717 1.98853 10C1.98853 7.283 1.99827 6.944 2.04701 5.878C2.09574 4.812 2.25852 4.088 2.50025 3.45C2.74416 2.78218 3.12777 2.17732 3.62409 1.678C4.11113 1.16923 4.70059 0.775729 5.35128 0.525C5.97315 0.277 6.67884 0.11 7.71789 0.0599999C8.75693 0.0129999 9.08736 0 11.7357 0ZM11.7357 5C10.4431 5 9.20349 5.52678 8.28952 6.46447C7.37555 7.40215 6.86209 8.67392 6.86209 10C6.86209 11.3261 7.37555 12.5979 8.28952 13.5355C9.20349 14.4732 10.4431 15 11.7357 15C13.0282 15 14.2678 14.4732 15.1818 13.5355C16.0958 12.5979 16.6092 11.3261 16.6092 10C16.6092 8.67392 16.0958 7.40215 15.1818 6.46447C14.2678 5.52678 13.0282 5 11.7357 5ZM18.0713 4.75C18.0713 4.41848 17.9429 4.10054 17.7144 3.86612C17.4859 3.6317 17.176 3.5 16.8529 3.5C16.5298 3.5 16.2199 3.6317 15.9914 3.86612C15.7629 4.10054 15.6345 4.41848 15.6345 4.75C15.6345 5.08152 15.7629 5.39946 15.9914 5.63388C16.2199 5.8683 16.5298 6 16.8529 6C17.176 6 17.4859 5.8683 17.7144 5.63388C17.9429 5.39946 18.0713 5.08152 18.0713 4.75ZM11.7357 7C12.5112 7 13.2549 7.31607 13.8033 7.87868C14.3517 8.44129 14.6598 9.20435 14.6598 10C14.6598 10.7956 14.3517 11.5587 13.8033 12.1213C13.2549 12.6839 12.5112 13 11.7357 13C10.9601 13 10.2164 12.6839 9.66797 12.1213C9.11959 11.5587 8.81151 10.7956 8.81151 10C8.81151 9.20435 9.11959 8.44129 9.66797 7.87868C10.2164 7.31607 10.9601 7 11.7357 7Z" fill="#F9FBFD"/>
</symbol><symbol id="logo" viewBox="0 0 70 38">
<path fill-rule="evenodd" clip-rule="evenodd" d="M0.903517 31.125L14.6726 12.5429L18.4395 14.556L27.4026 0L32.9879 6.65881L35.0665 4.95532L43.1199 15.1755L48.8355 8.36191L64.8126 31.125L49.42 11.7689L47.0817 19.8984L49.225 26.3249L35.456 7.35558L35.3069 13.8279L43.1199 31.125L28.5064 4.33574L32.7282 18.8145L26.8181 4.72292L23.5706 14.0916L24.2198 7.97472L16.1013 30.0411L17.0753 20.75L13.6981 17.0338L0.903517 31.125Z"/>
<path fill-rule="evenodd" clip-rule="evenodd" d="M69.4414 34.0314C47.641 16.428 13.7091 40.6289 0 31.2961C15.0723 44.5215 50.3019 22.1644 69.4414 34.0314Z"/>
<path fill-rule="evenodd" clip-rule="evenodd" d="M70 35.4157C52.8956 24.5171 27.4568 39.6838 14.4189 36.1717C28.5467 43.0283 54.8482 27.8361 70 35.4157Z"/>
</symbol><symbol id="map-pin" viewBox="0 0 18 22">
<path d="M15.364 15.5563L9 22L2.636 15.5563C1.37734 14.2819 0.520187 12.6581 0.172928 10.8905C-0.17433 9.12277 0.00390685 7.29051 0.685099 5.62539C1.36629 3.96027 2.51984 2.53707 3.99988 1.53576C5.47992 0.534448 7.21998 0 9 0C10.78 0 12.5201 0.534448 14.0001 1.53576C15.4802 2.53707 16.6337 3.96027 17.3149 5.62539C17.9961 7.29051 18.1743 9.12277 17.8271 10.8905C17.4798 12.6581 16.6227 14.2819 15.364 15.5563ZM9 11.1377C9.53044 11.1377 10.0391 10.9243 10.4142 10.5445C10.7893 10.1648 11 9.64969 11 9.11262C11 8.57554 10.7893 8.06047 10.4142 7.6807C10.0391 7.30093 9.53044 7.08757 9 7.08757C8.46957 7.08757 7.96086 7.30093 7.58579 7.6807C7.21072 8.06047 7 8.57554 7 9.11262C7 9.64969 7.21072 10.1648 7.58579 10.5445C7.96086 10.9243 8.46957 11.1377 9 11.1377Z" fill="#011C40"/>
</symbol><symbol id="ship" viewBox="0 0 27 32">
<path d="M4.40549 16.3962L13.2165 9.93576C13.4162 9.8063 13.6711 9.8063 13.8708 9.93576L22.7254 16.3962V8.68818C22.7739 7.6312 21.9743 6.7343 20.9396 6.68484C20.9242 6.68407 20.9089 6.68356 20.8934 6.68322H6.23749C5.20189 6.70667 4.38094 7.58319 4.4039 8.6411C4.40423 8.6568 4.40473 8.67249 4.40549 8.68818V16.3962Z" fill="#011C40"/>
<path d="M15.7464 0H11.3845V5.34662H15.7464V0Z" fill="#011C40"/>
<path d="M24.2956 30.1638L27 21.03L23.2052 18.3122L22.9434 18.1785L14.0016 11.8072V30.6094H13.5217L12.6929 30.5649V11.8072L0 21.03L2.79163 30.1193L4.4039 31.9904C4.4039 31.9904 5.7624 31.9904 7.15817 31.9904C7.15817 31.9904 12.2467 31.997 13.5218 31.9904C14.8198 32.012 17.1251 31.9904 17.1251 31.9904H22.8127L24.2956 30.1638Z" fill="#011C40"/>
</symbol><symbol id="tick" viewBox="0 0 12 8">
<path d="M1 2.5L5.28571 7L11 1" stroke="#101A56"/>
</symbol><symbol id="twitter" viewBox="0 0 23 20">
<path d="M21.999 4.42905C21.2689 4.76016 20.4947 4.97761 19.7019 5.07421C20.5375 4.56184 21.1629 3.75547 21.4616 2.80537C20.6774 3.28385 19.8176 3.61917 18.9215 3.80056C18.3196 3.14028 17.5217 2.70238 16.652 2.55494C15.7823 2.4075 14.8895 2.55877 14.1123 2.98524C13.3351 3.41172 12.7171 4.0895 12.3543 4.91321C11.9916 5.73692 11.9045 6.66042 12.1065 7.54013C10.5162 7.45841 8.96046 7.03471 7.54024 6.29654C6.12002 5.55838 4.86709 4.52225 3.8628 3.25541C3.50731 3.8814 3.32051 4.59302 3.3215 5.31737C3.3215 6.73907 4.02729 7.99507 5.10032 8.73043C4.46531 8.70994 3.84428 8.53412 3.28899 8.21764V8.26863C3.28918 9.21548 3.60876 10.1331 4.19355 10.866C4.77834 11.5988 5.59234 12.1018 6.49754 12.2896C5.90806 12.4534 5.28997 12.4775 4.69004 12.3602C4.94526 13.1752 5.4427 13.888 6.1127 14.3987C6.78271 14.9095 7.59173 15.1926 8.4265 15.2085C7.59685 15.8765 6.6469 16.3703 5.63098 16.6617C4.61505 16.9531 3.55306 17.0364 2.50574 16.9067C4.33399 18.1121 6.46225 18.7521 8.63594 18.75C15.9931 18.75 20.0165 12.5014 20.0165 7.08224C20.0165 6.90575 20.0117 6.72731 20.0041 6.55278C20.7872 5.9725 21.4631 5.25366 22 4.43003L21.999 4.42905Z" fill="#F9FBFD"/>
</symbol></svg>