<svg width="18" height="22" viewBox="0 0 18 22" fill="none" xmlns="http://www.w3.org/2000/svg">
<path d="M18 15.42V18.956C18.0001 19.2092 17.9042 19.453 17.7316 19.6382C17.559 19.8234 17.3226 19.9363 17.07 19.954C16.633 19.984 16.276 20 16 20C7.163 20 0 12.837 0 4C0 3.724 0.015 3.367 0.046 2.93C0.0637224 2.67744 0.176581 2.44101 0.361804 2.26841C0.547026 2.09581 0.790823 1.99989 1.044 2H4.58C4.70404 1.99987 4.8237 2.04586 4.91573 2.12902C5.00776 2.21218 5.0656 2.32658 5.078 2.45C5.101 2.68 5.122 2.863 5.142 3.002C5.34073 4.38892 5.748 5.73783 6.35 7.003C6.445 7.203 6.383 7.442 6.203 7.57L4.045 9.112C5.36445 12.1865 7.81455 14.6365 10.889 15.956L12.429 13.802C12.4919 13.714 12.5838 13.6509 12.6885 13.6237C12.7932 13.5964 12.9042 13.6068 13.002 13.653C14.267 14.2539 15.6156 14.6601 17.002 14.858C17.141 14.878 17.324 14.9 17.552 14.922C17.6752 14.9346 17.7894 14.9926 17.8724 15.0846C17.9553 15.1766 18.0012 15.2961 18.001 15.42H18Z" fill="#011C40"/>
</svg>
