<svg width="23" height="20" viewBox="0 0 23 20" fill="none" xmlns="http://www.w3.org/2000/svg">
<path d="M21.999 4.42905C21.2689 4.76016 20.4947 4.97761 19.7019 5.07421C20.5375 4.56184 21.1629 3.75547 21.4616 2.80537C20.6774 3.28385 19.8176 3.61917 18.9215 3.80056C18.3196 3.14028 17.5217 2.70238 16.652 2.55494C15.7823 2.4075 14.8895 2.55877 14.1123 2.98524C13.3351 3.41172 12.7171 4.0895 12.3543 4.91321C11.9916 5.73692 11.9045 6.66042 12.1065 7.54013C10.5162 7.45841 8.96046 7.03471 7.54024 6.29654C6.12002 5.55838 4.86709 4.52225 3.8628 3.25541C3.50731 3.8814 3.32051 4.59302 3.3215 5.31737C3.3215 6.73907 4.02729 7.99507 5.10032 8.73043C4.46531 8.70994 3.84428 8.53412 3.28899 8.21764V8.26863C3.28918 9.21548 3.60876 10.1331 4.19355 10.866C4.77834 11.5988 5.59234 12.1018 6.49754 12.2896C5.90806 12.4534 5.28997 12.4775 4.69004 12.3602C4.94526 13.1752 5.4427 13.888 6.1127 14.3987C6.78271 14.9095 7.59173 15.1926 8.4265 15.2085C7.59685 15.8765 6.6469 16.3703 5.63098 16.6617C4.61505 16.9531 3.55306 17.0364 2.50574 16.9067C4.33399 18.1121 6.46225 18.7521 8.63594 18.75C15.9931 18.75 20.0165 12.5014 20.0165 7.08224C20.0165 6.90575 20.0117 6.72731 20.0041 6.55278C20.7872 5.9725 21.4631 5.25366 22 4.43003L21.999 4.42905Z" fill="#F9FBFD"/>
</svg>
